<svg width="100" height="100" viewBox="0 0 200 200" xmlns="http://www.w3.org/2000/svg">
  <defs>
    <radialGradient id="glow" cx="50%" cy="50%" r="60%">
      <stop offset="0%" stop-color="#00eaff" stop-opacity="0.9"/>
      <stop offset="100%" stop-color="#00eaff" stop-opacity="0"/>
    </radialGradient>
    <linearGradient id="petals" x1="0%" y1="0%" x2="100%" y2="100%">
      <stop offset="0%" stop-color="#ff4dff"/>
      <stop offset="50%" stop-color="#9b4dff"/>
      <stop offset="100%" stop-color="#00eaff"/>
    </linearGradient>
  </defs>

  <!-- Glow -->
  <circle cx="100" cy="100" r="80" fill="url(#glow)"/>

  <!-- Petals -->
  <g fill="url(#petals)" stroke="#ffffff" stroke-width="2">
    <path d="M100 30 C80 60 70 90 100 110 C130 90 120 60 100 30 Z"/>
    <path d="M60 80 C40 110 50 140 100 150 C90 120 80 100 60 80 Z"/>
    <path d="M140 80 C120 100 110 120 100 150 C150 140 160 110 140 80 Z"/>
    <path d="M80 100 C60 130 80 160 100 170 C120 160 140 130 120 100 C110 120 90 120 80 100 Z"/>
  </g>
</svg>
